Coordinates
version=1
nRows=4
nColumns=63
inDegrees=yes

Units are S.I. units (second, meters, Newtons, ...)
If the header above contains a line with 'inDegrees', this indicates whether rotational values are in degrees (yes) or radians (no).

endheader
time	pelvis_tilt	pelvis_list	pelvis_rotation	pelvis_tx	pelvis_ty	pelvis_tz	hip_flexion_r	hip_adduction_r	hip_rotation_r	knee_angle_r	knee_angle_r_beta	ankle_angle_r	subtalar_angle_r	mtp_angle_r	hip_flexion_l	hip_adduction_l	hip_rotation_l	knee_angle_l	knee_angle_l_beta	ankle_angle_l	subtalar_angle_l	mtp_angle_l	L5_S1_Flex_Ext	L5_S1_Lat_Bending	L5_S1_axial_rotation	L4_L5_Flex_Ext	L4_L5_Lat_Bending	L4_L5_axial_rotation	L3_L4_Flex_Ext	L3_L4_Lat_Bending	L3_L4_axial_rotation	L2_L3_Flex_Ext	L2_L3_Lat_Bending	L2_L3_axial_rotation	L1_L2_Flex_Ext	L1_L2_Lat_Bending	L1_L2_axial_rotation	L1_T12_Flex_Ext	L1_T12_Lat_Bending	L1_T12_axial_rotation	Abs_r3	Abs_r2	Abs_r1	Abs_t1	Abs_t2	neck_flexion	neck_bending	neck_rotation	arm_flex_r	arm_add_r	arm_rot_r	elbow_flex_r	pro_sup_r	wrist_flex_r	wrist_dev_r	arm_flex_l	arm_add_l	arm_rot_l	elbow_flex_l	pro_sup_l	wrist_flex_l	wrist_dev_l
     11.10000000	     12.27590616	    -12.82000305	    182.23692161	     -0.36059450	      0.89095413	      0.10362287	      9.00858431	     -8.63271199	     35.91093331	      1.53034983	      0.02670964	   -113.95677529	      3.82049815	      0.00000000	     26.70369126	      2.82174444	    -69.85562703	     37.23751542	      0.64991725	     24.93550808	    -19.71610685	      0.00000000	      0.46121981	     -1.22207661	     -4.43576928	      0.85653130	     -1.62536189	     -4.71300486	      0.75773802	     -2.97135707	     -4.71300486	      0.52712812	     -2.97135707	     -3.88129812	      0.42828871	     -2.49205862	     -3.60406254	      0.26354100	     -1.89299667	     -3.32682696	      3.29444695	    -13.82437504	    -24.67041803	      0.00000000	      0.00000000	     27.87342151	    -31.83358003	    -44.09571819	     11.64790468	     -5.17144862	   -158.59795864	     25.41305933	    -19.94126808	     20.00394859	      5.00000014	     19.35761379	    -32.59835049	    129.75133529	     29.29349891	     53.56272400	     20.00394859	      5.00000014
     11.13333333	     12.63620647	    -12.33934800	    181.90845233	     -0.36029227	      0.89251542	      0.10262968	     10.53262314	     -8.08313835	     35.56742713	      1.68112116	      0.02934110	   -116.25058626	      3.60664559	      0.00000000	     25.78414520	      3.50202540	    -69.84166504	     32.62225433	      0.56936575	     31.30223001	    -19.68467030	      0.00000000	      0.44463933	     -1.13709705	     -4.34494210	      0.82573970	     -1.51233908	     -4.61650098	      0.73049796	     -2.76473777	     -4.61650098	      0.50817829	     -2.76473777	     -3.80182434	      0.41289208	     -2.31876831	     -3.53026546	      0.25406691	     -1.76136333	     -3.25870657	      3.17601428	    -12.86306925	    -24.16526447	      0.00000000	      0.00000000	     27.87293358	    -32.38717996	    -44.08877000	     11.24232061	     -5.91754189	   -159.54287877	     24.67653230	    -20.13877502	     20.00394859	      5.00000014	     19.66089440	    -31.17786249	    129.61197481	     27.37994800	     53.66980687	     20.00394859	      5.00000014
     11.16666667	     12.97122446	    -11.87488699	    181.35292279	     -0.36029456	      0.89356963	      0.10179792	     12.04592973	     -7.55999636	     35.07521420	      1.77523244	      0.03098365	   -118.82621788	      3.19173687	      0.00000000	     24.43823969	      4.54295016	    -69.82565323	     26.68218524	      0.46569198	     36.20635491	    -19.66536879	      0.00000000	      0.43111951	     -1.05295227	     -4.23506567	      0.80063205	     -1.40042652	     -4.49975727	      0.70828625	     -2.56014816	     -4.49975727	      0.49272649	     -2.56014816	     -3.70568246	      0.40033758	     -2.14718028	     -3.44099085	      0.24634169	     -1.63102307	     -3.17629925	      3.07944357	    -11.91120671	    -23.55416472	      0.00000000	      0.00000000	     27.87116507	    -32.94192642	    -44.08092035	     11.03729117	     -6.56529340	   -160.47442681	     24.23145499	    -20.33539745	     20.00394859	      5.00000014	     20.14785359	    -30.10344092	    129.52015020	     26.49370801	     53.79928686	     20.00394859	      5.00000014
     11.20000000	     13.39770085	    -10.75085071	    181.17283444	     -0.36090769	      0.89381517	      0.10190967	     13.35448819	     -6.49237079	     34.71442480	      1.66953424	      0.02913887	   -121.06960395	      3.30016340	      0.00000000	     23.11655217	      4.60091843	    -69.81095586	     22.06030475	      0.38502495	     38.73640659	    -19.65354764	      0.00000000	      0.42307256	     -0.88852251	     -4.20944693	      0.78568805	     -1.18173494	     -4.47253737	      0.69506590	     -2.16035363	     -4.47253737	      0.48352963	     -2.16035363	     -3.68326607	      0.39286518	     -1.81187510	     -3.42017563	      0.24174366	     -1.37632136	     -3.15708520	      3.02196497	    -10.05114431	    -23.41168100	      0.00000000	      0.00000000	     27.86616075	    -33.19571809	    -44.06700692	     11.02930989	     -7.43114708	   -160.86340398	     24.05095114	    -20.42986308	     20.00394858	      5.00000014	     20.62953020	    -28.93064631	    129.29930292	     26.36474978	     53.84830583	     20.00394858	      5.00000014
